<?xml version="1.0" encoding="UTF-8" standalone="no"?>
<svg xmlns="http://www.w3.org/2000/svg" contentScriptType="application/ecmascript" contentStyleType="text/css"
     height="212.5px" preserveAspectRatio="none" style="width:601px;height:212px;" version="1.1" viewBox="0 0 601 212"
     width="601.25px" zoomAndPan="magnify">
    <defs>
        <filter height="300%" id="f3xjbggkjgau6" width="300%" x="-1" y="-1">
            <feGaussianBlur result="blurOut" stdDeviation="2.5"/>
            <feColorMatrix in="blurOut" result="blurOut2" type="matrix"
                           values="0 0 0 0 0 0 0 0 0 0 0 0 0 0 0 0 0 0 .4 0"/>
            <feOffset dx="5.0" dy="5.0" in="blurOut2" result="blurOut3"/>
            <feBlend in="SourceGraphic" in2="blurOut3" mode="normal"/>
        </filter>
    </defs>
    <g><!--MD5=[776170d50eeda089144feb66ec02fd14]
cluster barbatos_rex1.barbatos_rex1.io-->
        <polygon fill="#FFFFFF" filter="url(#f3xjbggkjgau6)"
                 points="27.5,29.515,182.5,29.515,191.25,59.0267,413.75,59.0267,413.75,160.7653,27.5,160.7653,27.5,29.515"
                 style="stroke: #000000; stroke-width: 1.875;"/>
        <line style="stroke: #000000; stroke-width: 1.875;" x1="27.5" x2="191.25" y1="59.0267" y2="59.0267"/>
        <text fill="#000000" font-family="sans-serif" font-size="17.5" font-weight="bold"
              lengthAdjust="spacingAndGlyphs" textLength="147.5" x="32.5" y="50.1815">barbatos_rex1.barbatos_rex1.io
        </text><!--MD5=[0d852700fdad35b7061d461d6907a324]
cluster java.barbatos_rex1.io-->
        <polygon fill="#FFFFFF" filter="url(#f3xjbggkjgau6)"
                 points="455,44.515,520,44.515,528.75,74.0267,573.75,74.0267,573.75,169.5153,455,169.5153,455,44.515"
                 style="stroke: #000000; stroke-width: 1.875;"/>
        <line style="stroke: #000000; stroke-width: 1.875;" x1="455" x2="528.75" y1="74.0267" y2="74.0267"/>
        <text fill="#000000" font-family="sans-serif" font-size="17.5" font-weight="bold"
              lengthAdjust="spacingAndGlyphs" textLength="57.5" x="460" y="65.1815">java.io
        </text><!--MD5=[b24ed8d4ae84bae9290d9aab401637c7]
class Manager-->
        <rect fill="#FEFECE" filter="url(#f3xjbggkjgau6)" height="60" id="Manager"
              style="stroke: #A80036; stroke-width: 1.875;" width="113.75" x="47.5" y="78.2653"/>
        <ellipse cx="66.25" cy="98.2653" fill="#ADD1B2" rx="13.75" ry="13.75"
                 style="stroke: #A80036; stroke-width: 1.25;"/>
        <path d="M68.75,93.8903 Q69.0039,93.2653 69.2969,92.9528 Q69.5898,92.6403 69.9219,92.6403 Q70.5078,92.6403 70.8789,92.9918 Q71.25,93.3434 71.25,94.1637 L71.25,96.1168 Q71.25,96.9371 70.8984,97.2887 Q70.5469,97.6403 70,97.6403 Q69.5117,97.6403 69.1992,97.4254 Q68.8867,97.2106 68.75,96.6442 Q68.6914,96.2535 68.4766,96.0387 Q68.0859,95.6285 67.3828,95.3942 Q66.6797,95.1403 65.9766,95.1403 Q65.0977,95.1403 64.3555,95.4918 Q63.6328,95.8434 63.0664,96.6246 Q62.5,97.4059 62.5,98.4801 L62.5,99.6324 Q62.5,100.9215 63.5547,101.7809 Q64.6094,102.6403 66.4844,102.6403 Q67.5977,102.6403 68.3789,102.3863 Q68.8281,102.2496 69.3359,101.8004 Q69.668,101.5465 69.8438,101.4684 Q70.0195,101.3903 70.2344,101.3903 Q70.6445,101.3903 70.9375,101.7223 Q71.25,102.0348 71.25,102.484 Q71.25,102.9137 70.8203,103.4215 Q70.1953,104.1637 69.1992,104.5738 Q67.8906,105.1403 66.2891,105.1403 Q64.4141,105.1403 62.9102,104.3981 Q61.6992,103.8121 60.8398,102.5426 Q60,101.2731 60,99.7692 L60,98.402 Q60,96.8395 60.7422,95.4723 Q61.5039,94.1051 62.8125,93.3824 Q64.1406,92.6403 65.625,92.6403 Q66.5234,92.6403 67.3047,92.9528 Q68.0859,93.2653 68.75,93.8903 Z "/>
        <polygon fill="#4177AF" points="90,92.6403,85,100.1403,95,100.1403"
                 style="stroke: #1963A0; stroke-width: 1.25;"/>
        <text fill="#000000" font-family="sans-serif" font-size="15" lengthAdjust="spacingAndGlyphs" textLength="60"
              x="97.5" y="104.4029">Manager
        </text>
        <line style="stroke: #A80036; stroke-width: 1.875;" x1="48.75" x2="160" y1="118.2653" y2="118.2653"/>
        <line style="stroke: #A80036; stroke-width: 1.875;" x1="48.75" x2="160" y1="128.2653" y2="128.2653"/><!--MD5=[c42cc2f62cf2b85ed1c672168c570fb7]
class Importer-->
        <rect fill="#FEFECE" filter="url(#f3xjbggkjgau6)" height="60" id="Importer"
              style="stroke: #A80036; stroke-width: 1.875;" width="111.25" x="282.5" y="74.5153"/>
        <ellipse cx="301.25" cy="94.5153" fill="#ADD1B2" rx="13.75" ry="13.75"
                 style="stroke: #A80036; stroke-width: 1.25;"/>
        <path d="M303.75,90.1403 Q304.0039,89.5153 304.2969,89.2028 Q304.5898,88.8903 304.9219,88.8903 Q305.5078,88.8903 305.8789,89.2418 Q306.25,89.5934 306.25,90.4137 L306.25,92.3668 Q306.25,93.1871 305.8984,93.5387 Q305.5469,93.8903 305,93.8903 Q304.5117,93.8903 304.1992,93.6754 Q303.8867,93.4606 303.75,92.8942 Q303.6914,92.5035 303.4766,92.2887 Q303.0859,91.8785 302.3828,91.6442 Q301.6797,91.3903 300.9766,91.3903 Q300.0977,91.3903 299.3555,91.7418 Q298.6328,92.0934 298.0664,92.8746 Q297.5,93.6559 297.5,94.7301 L297.5,95.8824 Q297.5,97.1715 298.5547,98.0309 Q299.6094,98.8903 301.4844,98.8903 Q302.5977,98.8903 303.3789,98.6363 Q303.8281,98.4996 304.3359,98.0504 Q304.668,97.7965 304.8438,97.7184 Q305.0195,97.6403 305.2344,97.6403 Q305.6445,97.6403 305.9375,97.9723 Q306.25,98.2848 306.25,98.734 Q306.25,99.1637 305.8203,99.6715 Q305.1953,100.4137 304.1992,100.8238 Q302.8906,101.3903 301.2891,101.3903 Q299.4141,101.3903 297.9102,100.6481 Q296.6992,100.0621 295.8398,98.7926 Q295,97.5231 295,96.0192 L295,94.652 Q295,93.0895 295.7422,91.7223 Q296.5039,90.3551 297.8125,89.6324 Q299.1406,88.8903 300.625,88.8903 Q301.5234,88.8903 302.3047,89.2028 Q303.0859,89.5153 303.75,90.1403 Z "/>
        <polygon fill="#4177AF" points="325,88.8903,320,96.3903,330,96.3903"
                 style="stroke: #1963A0; stroke-width: 1.25;"/>
        <text fill="#000000" font-family="sans-serif" font-size="15" lengthAdjust="spacingAndGlyphs" textLength="57.5"
              x="332.5" y="100.6529">Importer
        </text>
        <line style="stroke: #A80036; stroke-width: 1.875;" x1="283.75" x2="392.5" y1="114.5153" y2="114.5153"/>
        <line style="stroke: #A80036; stroke-width: 1.875;" x1="283.75" x2="392.5" y1="124.5153" y2="124.5153"/><!--MD5=[63dd87716ef75a5caca5dce59428e94a]
class File-->
        <rect fill="#FEFECE" filter="url(#f3xjbggkjgau6)" height="60" id="File"
              style="stroke: #A80036; stroke-width: 1.875;" width="78.75" x="475" y="89.5153"/>
        <ellipse cx="493.75" cy="109.5153" fill="#ADD1B2" rx="13.75" ry="13.75"
                 style="stroke: #A80036; stroke-width: 1.25;"/>
        <path d="M496.25,105.1403 Q496.5039,104.5153 496.7969,104.2028 Q497.0898,103.8903 497.4219,103.8903 Q498.0078,103.8903 498.3789,104.2418 Q498.75,104.5934 498.75,105.4137 L498.75,107.3668 Q498.75,108.1871 498.3984,108.5387 Q498.0469,108.8903 497.5,108.8903 Q497.0117,108.8903 496.6992,108.6754 Q496.3867,108.4606 496.25,107.8942 Q496.1914,107.5035 495.9766,107.2887 Q495.5859,106.8785 494.8828,106.6442 Q494.1797,106.3903 493.4766,106.3903 Q492.5977,106.3903 491.8555,106.7418 Q491.1328,107.0934 490.5664,107.8746 Q490,108.6559 490,109.7301 L490,110.8824 Q490,112.1715 491.0547,113.0309 Q492.1094,113.8903 493.9844,113.8903 Q495.0977,113.8903 495.8789,113.6363 Q496.3281,113.4996 496.8359,113.0504 Q497.168,112.7965 497.3438,112.7184 Q497.5195,112.6403 497.7344,112.6403 Q498.1445,112.6403 498.4375,112.9723 Q498.75,113.2848 498.75,113.734 Q498.75,114.1637 498.3203,114.6715 Q497.6953,115.4137 496.6992,115.8238 Q495.3906,116.3903 493.7891,116.3903 Q491.9141,116.3903 490.4102,115.6481 Q489.1992,115.0621 488.3398,113.7926 Q487.5,112.5231 487.5,111.0192 L487.5,109.652 Q487.5,108.0895 488.2422,106.7223 Q489.0039,105.3551 490.3125,104.6324 Q491.6406,103.8903 493.125,103.8903 Q494.0234,103.8903 494.8047,104.2028 Q495.5859,104.5153 496.25,105.1403 Z "/>
        <ellipse cx="517.5" cy="108.8903" fill="#84BE84" rx="3.75" ry="3.75"
                 style="stroke: #038048; stroke-width: 1.25;"/>
        <text fill="#000000" font-family="sans-serif" font-size="15" lengthAdjust="spacingAndGlyphs" textLength="25"
              x="525" y="115.6529">File
        </text>
        <line style="stroke: #A80036; stroke-width: 1.875;" x1="476.25" x2="552.5" y1="129.5153" y2="129.5153"/>
        <line style="stroke: #A80036; stroke-width: 1.875;" x1="476.25" x2="552.5" y1="139.5153" y2="139.5153"/><!--MD5=[9094504a78a8a624dc0e3735af7308d8]
link Manager to File-->
        <path d="M161.285,137.1034 C195.2988,153.0798 240.25,171.3253 282.5,179.5153 C344.13,191.4621 363.695,197.8041 423.75,179.5153 C443.595,173.4719 463.0325,161.3891 478.6863,149.6402 "
              fill="none" id="Manager-File" style="stroke: #A80036; stroke-width: 1.25;"/>
        <text fill="#000000" font-family="sans-serif" font-size="16.25" lengthAdjust="spacingAndGlyphs"
              textLength="27.5" x="316.25" y="175.1341">tem
        </text>
        <polygon fill="#000000" points="347.5,166.61,355,170.36,347.5,174.11,347.5,166.61"
                 style="stroke: #000000; stroke-width: 1.25;"/>
        <text fill="#000000" font-family="sans-serif" font-size="16.25" lengthAdjust="spacingAndGlyphs"
              textLength="8.75" x="171.4353" y="160.4412">1
        </text>
        <text fill="#000000" font-family="sans-serif" font-size="16.25" lengthAdjust="spacingAndGlyphs"
              textLength="8.75" x="460.1707" y="176.3432">1
        </text><!--MD5=[96f76a1a1aa6b66070b76640b82cea2b]
link Manager to Importer-->
        <path d="M161.6038,107.3575 C198.23,106.7636 245.8513,105.9914 282.2088,105.4017 " fill="none"
              id="Manager-Importer" style="stroke: #A80036; stroke-width: 1.25;"/>
        <text fill="#000000" font-family="sans-serif" font-size="16.25" lengthAdjust="spacingAndGlyphs"
              textLength="27.5" x="200" y="102.6341">tem
        </text>
        <polygon fill="#000000" points="231.25,94.11,238.75,97.86,231.25,101.61,231.25,94.11"
                 style="stroke: #000000; stroke-width: 1.25;"/>
        <text fill="#000000" font-family="sans-serif" font-size="16.25" lengthAdjust="spacingAndGlyphs"
              textLength="8.75" x="171.4218" y="125.7105">1
        </text>
        <text fill="#000000" font-family="sans-serif" font-size="16.25" lengthAdjust="spacingAndGlyphs"
              textLength="8.75" x="263.8498" y="124.0407">1
        </text><!--MD5=[650bdff82047086874c462de456b28a2]
link Importer to File-->
        <path d="M393.8738,109.2203 C420.1475,111.4885 451.0313,114.1548 474.7863,116.2055 " fill="none"
              id="Importer-File" style="stroke: #A80036; stroke-width: 1.25; stroke-dasharray: 7.0,7.0;"/><!--MD5=[16dad17fa0003b7c71bd96ea92d5af6f]
@startuml
left to right direction
package barbatos_rex1.barbatos_rex1.io{
    ~class Manager{

    }
    ~class Importer{

    }
}
package java.barbatos_rex1.io{
    +class File{

    }
}
Manager"1" - - "1"File : tem >
Manager"1" - - "1"Importer: tem >
Importer .. File

@enduml

PlantUML version 1.2020.07(Sun Apr 19 12:42:40 BST 2020)
(GPL source distribution)
Java Runtime: OpenJDK Runtime Environment
JVM: OpenJDK 64-Bit Server VM
Java Version: 11.0.6+8-b765.25
Operating System: Windows 10
Default Encoding: Cp1252
Language: pt
Country: PT
-->
    </g>
</svg>