<?xml version="1.0" encoding="UTF-8" standalone="no"?>
<svg xmlns="http://www.w3.org/2000/svg" contentScriptType="application/ecmascript" contentStyleType="text/css"
     height="235px" preserveAspectRatio="none" style="width:343px;height:235px;" version="1.1" viewBox="0 0 343 235"
     width="343.75px" zoomAndPan="magnify"><defs><filter height="300%" id="f132zccot6dslk" width="300%" x="-1" y="-1"><feGaussianBlur result="blurOut" stdDeviation="2.5"/><feColorMatrix in="blurOut" result="blurOut2" type="matrix" values="0 0 0 0 0 0 0 0 0 0 0 0 0 0 0 0 0 0 .4 0"/><feOffset dx="5.0" dy="5.0" in="blurOut2" result="blurOut3"/><feBlend in="SourceGraphic" in2="blurOut3" mode="normal"/></filter></defs><g><!--MD5=[25130987bb157c9c4bf3597b4cd367a1]
cluster barbatos_rex1.barbatos_rex1.io--><polygon fill="#FFFFFF" filter="url(#f132zccot6dslk)" points="17.5,30,303.75,30,312.5,59.5117,316.25,59.5117,316.25,220,17.5,220,17.5,30" style="stroke: #000000; stroke-width: 1.875;"/><line style="stroke: #000000; stroke-width: 1.875;" x1="17.5" x2="312.5" y1="59.5117" y2="59.5117"/><text fill="#000000" font-family="sans-serif" font-size="17.5" font-weight="bold" lengthAdjust="spacingAndGlyphs" textLength="278.75" x="22.5" y="50.6665">barbatos_rex1.barbatos_rex1.io</text><!--MD5=[b24ed8d4ae84bae9290d9aab401637c7]
class Manager--><rect fill="#FEFECE" filter="url(#f132zccot6dslk)" height="67.2949" id="Manager" style="stroke: #A80036; stroke-width: 1.875;" width="146.25" x="93.75" y="132.5"/><ellipse cx="127.125" cy="152.5" fill="#ADD1B2" rx="13.75" ry="13.75" style="stroke: #A80036; stroke-width: 1.25;"/><path d="M129.625,148.125 Q129.8789,147.5 130.1719,147.1875 Q130.4648,146.875 130.7969,146.875 Q131.3828,146.875 131.7539,147.2266 Q132.125,147.5781 132.125,148.3984 L132.125,150.3516 Q132.125,151.1719 131.7734,151.5234 Q131.4219,151.875 130.875,151.875 Q130.3867,151.875 130.0742,151.6602 Q129.7617,151.4453 129.625,150.8789 Q129.5664,150.4883 129.3516,150.2734 Q128.9609,149.8633 128.2578,149.6289 Q127.5547,149.375 126.8516,149.375 Q125.9727,149.375 125.2305,149.7266 Q124.5078,150.0781 123.9414,150.8594 Q123.375,151.6406 123.375,152.7148 L123.375,153.8672 Q123.375,155.1563 124.4297,156.0156 Q125.4844,156.875 127.3594,156.875 Q128.4727,156.875 129.2539,156.6211 Q129.7031,156.4844 130.2109,156.0352 Q130.543,155.7813 130.7188,155.7031 Q130.8945,155.625 131.1094,155.625 Q131.5195,155.625 131.8125,155.957 Q132.125,156.2695 132.125,156.7188 Q132.125,157.1484 131.6953,157.6563 Q131.0703,158.3984 130.0742,158.8086 Q128.7656,159.375 127.1641,159.375 Q125.2891,159.375 123.7852,158.6328 Q122.5742,158.0469 121.7148,156.7773 Q120.875,155.5078 120.875,154.0039 L120.875,152.6367 Q120.875,151.0742 121.6172,149.707 Q122.3789,148.3398 123.6875,147.6172 Q125.0156,146.875 126.5,146.875 Q127.3984,146.875 128.1797,147.1875 Q128.9609,147.5 129.625,148.125 Z "/><polygon fill="#4177AF" points="154.125,146.875,149.125,154.375,159.125,154.375" style="stroke: #1963A0; stroke-width: 1.25;"/><text fill="#000000" font-family="sans-serif" font-size="15" lengthAdjust="spacingAndGlyphs" textLength="60" x="161.625" y="158.6377">Manager</text><line style="stroke: #A80036; stroke-width: 1.875;" x1="95" x2="238.75" y1="172.5" y2="172.5"/><ellipse cx="107.5" cy="186.25" fill="#84BE84" rx="3.75" ry="3.75" style="stroke: #038048; stroke-width: 1.25;"/><text fill="#000000" font-family="sans-serif" font-size="13.75" lengthAdjust="spacingAndGlyphs" textLength="113.75" x="118.75" y="191.7737">addLine(int, String)</text><!--MD5=[fa114b7818d3f328d8528d7d2e27bbbf]
link Manager to Manager--><path d="M141.9587,132.3895 C135.205,110.2138 143.5113,88.75 166.875,88.75 C190.2388,88.75 198.545,110.2138 191.7913,132.3895 " fill="none" id="Manager-Manager" style="stroke: #A80036; stroke-width: 1.25;"/><polygon fill="#000000" points="93.125,69.5947,85.625,73.3447,93.125,77.0947,93.125,69.5947" style="stroke: #000000; stroke-width: 1.25;"/><text fill="#000000" font-family="sans-serif" font-size="16.25" lengthAdjust="spacingAndGlyphs" textLength="136.25" x="106.875" y="78.1189">remove o conteúdo</text><text fill="#000000" font-family="sans-serif" font-size="16.25" lengthAdjust="spacingAndGlyphs" textLength="8.75" x="126.4351" y="119.1908">1</text><text fill="#000000" font-family="sans-serif" font-size="16.25" lengthAdjust="spacingAndGlyphs" textLength="8.75" x="187.7914" y="119.1908">1</text><!--MD5=[c00319a42237bb41595e3e2601622099]
@startuml

hide fields
left to right direction
package barbatos_rex1.barbatos_rex1.io{
    ~class Manager{
        +addLine(int, String)
    }

}

Manager"1"- -"1"Manager: remove o conteúdo >
@enduml

PlantUML version 1.2020.09(Sun May 10 11:51:06 BST 2020)
(GPL source distribution)
Java Runtime: OpenJDK Runtime Environment
JVM: OpenJDK 64-Bit Server VM
Java Version: 11.0.6+8-b765.40
Operating System: Windows 10
Default Encoding: Cp1252
Language: pt
Country: PT
--></g></svg>