<?xml version="1.0" encoding="UTF-8" standalone="no"?>
<svg xmlns="http://www.w3.org/2000/svg" contentScriptType="application/ecmascript" contentStyleType="text/css"
     height="177.5px" preserveAspectRatio="none" style="width:742px;height:177px;" version="1.1" viewBox="0 0 742 177"
     width="742.5px" zoomAndPan="magnify">
    <defs>
        <filter height="300%" id="fzo6c66b3lv0i" width="300%" x="-1" y="-1">
            <feGaussianBlur result="blurOut" stdDeviation="2.5"/>
            <feColorMatrix in="blurOut" result="blurOut2" type="matrix"
                           values="0 0 0 0 0 0 0 0 0 0 0 0 0 0 0 0 0 0 .4 0"/>
            <feOffset dx="5.0" dy="5.0" in="blurOut2" result="blurOut3"/>
            <feBlend in="SourceGraphic" in2="blurOut3" mode="normal"/>
        </filter>
    </defs>
    <g><!--MD5=[776170d50eeda089144feb66ec02fd14]
cluster barbatos_rex1.io-->
        <polygon fill="#FFFFFF" filter="url(#fzo6c66b3lv0i)"
                 points="27.5,30,182.5,30,191.25,59.5117,222.5,59.5117,222.5,162.5,27.5,162.5,27.5,30"
                 style="stroke: #000000; stroke-width: 1.875;"/>
        <line style="stroke: #000000; stroke-width: 1.875;" x1="27.5" x2="191.25" y1="59.5117" y2="59.5117"/>
        <text fill="#000000" font-family="sans-serif" font-size="17.5" font-weight="bold"
              lengthAdjust="spacingAndGlyphs" textLength="147.5" x="32.5" y="50.6665">barbatos_rex1.io
        </text><!--MD5=[04b60553f148d1d75385c956807e5a0f]
cluster java.io.File-->
        <polygon fill="#FFFFFF" filter="url(#fzo6c66b3lv0i)"
                 points="577.5,30,680,30,688.75,59.5117,715,59.5117,715,162.5,577.5,162.5,577.5,30"
                 style="stroke: #000000; stroke-width: 1.875;"/>
        <line style="stroke: #000000; stroke-width: 1.875;" x1="577.5" x2="688.75" y1="59.5117" y2="59.5117"/>
        <text fill="#000000" font-family="sans-serif" font-size="17.5" font-weight="bold"
              lengthAdjust="spacingAndGlyphs" textLength="95" x="582.5" y="50.6665">java.io.File
        </text><!--MD5=[b24ed8d4ae84bae9290d9aab401637c7]
class Manager-->
        <rect fill="#FEFECE" filter="url(#fzo6c66b3lv0i)" height="67.2949" id="Manager"
              style="stroke: #A80036; stroke-width: 1.875;" width="155" x="47.5" y="75"/>
        <ellipse cx="84.8125" cy="95" fill="#ADD1B2" rx="13.75" ry="13.75"
                 style="stroke: #A80036; stroke-width: 1.25;"/>
        <path d="M87.3125,90.625 Q87.5664,90 87.8594,89.6875 Q88.1523,89.375 88.4844,89.375 Q89.0703,89.375 89.4414,89.7266 Q89.8125,90.0781 89.8125,90.8984 L89.8125,92.8516 Q89.8125,93.6719 89.4609,94.0234 Q89.1094,94.375 88.5625,94.375 Q88.0742,94.375 87.7617,94.1602 Q87.4492,93.9453 87.3125,93.3789 Q87.2539,92.9883 87.0391,92.7734 Q86.6484,92.3633 85.9453,92.1289 Q85.2422,91.875 84.5391,91.875 Q83.6602,91.875 82.918,92.2266 Q82.1953,92.5781 81.6289,93.3594 Q81.0625,94.1406 81.0625,95.2148 L81.0625,96.3672 Q81.0625,97.6563 82.1172,98.5156 Q83.1719,99.375 85.0469,99.375 Q86.1602,99.375 86.9414,99.1211 Q87.3906,98.9844 87.8984,98.5352 Q88.2305,98.2813 88.4063,98.2031 Q88.582,98.125 88.7969,98.125 Q89.207,98.125 89.5,98.457 Q89.8125,98.7695 89.8125,99.2188 Q89.8125,99.6484 89.3828,100.1563 Q88.7578,100.8984 87.7617,101.3086 Q86.4531,101.875 84.8516,101.875 Q82.9766,101.875 81.4727,101.1328 Q80.2617,100.5469 79.4023,99.2773 Q78.5625,98.0078 78.5625,96.5039 L78.5625,95.1367 Q78.5625,93.5742 79.3047,92.207 Q80.0664,90.8398 81.375,90.1172 Q82.7031,89.375 84.1875,89.375 Q85.0859,89.375 85.8672,89.6875 Q86.6484,90 87.3125,90.625 Z "/>
        <polygon fill="#4177AF" points="112.6875,89.375,107.6875,96.875,117.6875,96.875"
                 style="stroke: #1963A0; stroke-width: 1.25;"/>
        <text fill="#000000" font-family="sans-serif" font-size="15" lengthAdjust="spacingAndGlyphs" textLength="60"
              x="120.1875" y="101.1377">Manager
        </text>
        <line style="stroke: #A80036; stroke-width: 1.875;" x1="48.75" x2="201.25" y1="115" y2="115"/>
        <ellipse cx="61.25" cy="128.75" fill="#84BE84" rx="3.75" ry="3.75"
                 style="stroke: #038048; stroke-width: 1.25;"/>
        <text fill="#000000" font-family="sans-serif" font-size="13.75" lengthAdjust="spacingAndGlyphs"
              text-decoration="underline" textLength="122.5" x="72.5" y="134.2737">makeDir(String path)
        </text><!--MD5=[63dd87716ef75a5caca5dce59428e94a]
class File-->
        <rect fill="#FEFECE" filter="url(#fzo6c66b3lv0i)" height="67.2949" id="File"
              style="stroke: #A80036; stroke-width: 1.875;" width="97.5" x="597.5" y="75"/>
        <ellipse cx="624.6875" cy="95" fill="#ADD1B2" rx="13.75" ry="13.75"
                 style="stroke: #A80036; stroke-width: 1.25;"/>
        <path d="M627.1875,90.625 Q627.4414,90 627.7344,89.6875 Q628.0273,89.375 628.3594,89.375 Q628.9453,89.375 629.3164,89.7266 Q629.6875,90.0781 629.6875,90.8984 L629.6875,92.8516 Q629.6875,93.6719 629.3359,94.0234 Q628.9844,94.375 628.4375,94.375 Q627.9492,94.375 627.6367,94.1602 Q627.3242,93.9453 627.1875,93.3789 Q627.1289,92.9883 626.9141,92.7734 Q626.5234,92.3633 625.8203,92.1289 Q625.1172,91.875 624.4141,91.875 Q623.5352,91.875 622.793,92.2266 Q622.0703,92.5781 621.5039,93.3594 Q620.9375,94.1406 620.9375,95.2148 L620.9375,96.3672 Q620.9375,97.6563 621.9922,98.5156 Q623.0469,99.375 624.9219,99.375 Q626.0352,99.375 626.8164,99.1211 Q627.2656,98.9844 627.7734,98.5352 Q628.1055,98.2813 628.2813,98.2031 Q628.457,98.125 628.6719,98.125 Q629.082,98.125 629.375,98.457 Q629.6875,98.7695 629.6875,99.2188 Q629.6875,99.6484 629.2578,100.1563 Q628.6328,100.8984 627.6367,101.3086 Q626.3281,101.875 624.7266,101.875 Q622.8516,101.875 621.3477,101.1328 Q620.1367,100.5469 619.2773,99.2773 Q618.4375,98.0078 618.4375,96.5039 L618.4375,95.1367 Q618.4375,93.5742 619.1797,92.207 Q619.9414,90.8398 621.25,90.1172 Q622.5781,89.375 624.0625,89.375 Q624.9609,89.375 625.7422,89.6875 Q626.5234,90 627.1875,90.625 Z "/>
        <ellipse cx="650.3125" cy="94.375" fill="#84BE84" rx="3.75" ry="3.75"
                 style="stroke: #038048; stroke-width: 1.25;"/>
        <text fill="#000000" font-family="sans-serif" font-size="15" lengthAdjust="spacingAndGlyphs" textLength="25"
              x="657.8125" y="101.1377">File
        </text>
        <line style="stroke: #A80036; stroke-width: 1.875;" x1="598.75" x2="693.75" y1="115" y2="115"/>
        <ellipse cx="611.25" cy="128.75" fill="#84BE84" rx="3.75" ry="3.75"
                 style="stroke: #038048; stroke-width: 1.25;"/>
        <text fill="#000000" font-family="sans-serif" font-size="13.75" lengthAdjust="spacingAndGlyphs"
              text-decoration="underline" textLength="65" x="622.5" y="134.2737">makeDirs()
        </text><!--MD5=[9094504a78a8a624dc0e3735af7308d8]
link Manager to File-->
        <path d="M202.7938,108.75 C311.44,108.75 507.1688,108.75 597.2538,108.75 " fill="none" id="Manager-File"
              style="stroke: #A80036; stroke-width: 1.25;"/>
        <text fill="#000000" font-family="sans-serif" font-size="16.25" lengthAdjust="spacingAndGlyphs"
              textLength="296.25" x="243.75" y="104.3689">tem o mesmo caminho para os diretórios
        </text>
        <polygon fill="#000000" points="543.75,95.8447,551.25,99.5947,543.75,103.3447,543.75,95.8447"
                 style="stroke: #000000; stroke-width: 1.25;"/><!--MD5=[b35d48fbc2a5742191be82b48bb3bf4f]
@startuml
left to right direction
hide fields
package barbatos_rex1.io{
    ~class Manager{
        {static}+makeDir(String path)
    }
}
package java.io.File{
    +class File{
        {static}+makeDirs()
    }
}
Manager - - File : tem o mesmo caminho para os diretórios >

@enduml

PlantUML version 1.2020.07(Sun Apr 19 12:42:40 BST 2020)
(GPL source distribution)
Java Runtime: OpenJDK Runtime Environment
JVM: OpenJDK 64-Bit Server VM
Java Version: 11.0.6+8-b765.25
Operating System: Windows 10
Default Encoding: Cp1252
Language: pt
Country: PT
--></g></svg>