<?xml version="1.0" encoding="UTF-8" standalone="no"?>
<svg xmlns="http://www.w3.org/2000/svg" contentScriptType="application/ecmascript" contentStyleType="text/css"
     height="195px" preserveAspectRatio="none" style="width:927px;height:195px;" version="1.1" viewBox="0 0 927 195"
     width="927.5px" zoomAndPan="magnify">
    <defs>
        <filter height="300%" id="f7ft8o78dsfv9" width="300%" x="-1" y="-1">
            <feGaussianBlur result="blurOut" stdDeviation="2.5"/>
            <feColorMatrix in="blurOut" result="blurOut2" type="matrix"
                           values="0 0 0 0 0 0 0 0 0 0 0 0 0 0 0 0 0 0 .4 0"/>
            <feOffset dx="5.0" dy="5.0" in="blurOut2" result="blurOut3"/>
            <feBlend in="SourceGraphic" in2="blurOut3" mode="normal"/>
        </filter>
    </defs>
    <g><!--MD5=[776170d50eeda089144feb66ec02fd14]
cluster barbatos_rex1.io-->
        <polygon fill="#FFFFFF" filter="url(#f7ft8o78dsfv9)"
                 points="27.5,38.75,182.5,38.75,191.25,68.2617,682.5,68.2617,682.5,171.25,27.5,171.25,27.5,38.75"
                 style="stroke: #000000; stroke-width: 1.875;"/>
        <line style="stroke: #000000; stroke-width: 1.875;" x1="27.5" x2="191.25" y1="68.2617" y2="68.2617"/>
        <text fill="#000000" font-family="sans-serif" font-size="17.5" font-weight="bold"
              lengthAdjust="spacingAndGlyphs" textLength="147.5" x="32.5" y="59.4165">barbatos_rex1.io
        </text><!--MD5=[0d852700fdad35b7061d461d6907a324]
cluster java.io-->
        <polygon fill="#FFFFFF" filter="url(#f7ft8o78dsfv9)"
                 points="717.5,30,782.5,30,791.25,59.5117,900,59.5117,900,180,717.5,180,717.5,30"
                 style="stroke: #000000; stroke-width: 1.875;"/>
        <line style="stroke: #000000; stroke-width: 1.875;" x1="717.5" x2="791.25" y1="59.5117" y2="59.5117"/>
        <text fill="#000000" font-family="sans-serif" font-size="17.5" font-weight="bold"
              lengthAdjust="spacingAndGlyphs" textLength="57.5" x="722.5" y="50.6665">java.io
        </text><!--MD5=[d7d75c7975120325b5043d308b51cab1]
class IOManager-->
        <rect fill="#FEFECE" filter="url(#f7ft8o78dsfv9)" height="67.2949" id="IOManager"
              style="stroke: #A80036; stroke-width: 1.875;" width="155" x="47.5" y="83.75"/>
        <ellipse cx="78.0625" cy="103.75" fill="#ADD1B2" rx="13.75" ry="13.75"
                 style="stroke: #A80036; stroke-width: 1.25;"/>
        <path d="M80.5625,99.375 Q80.8164,98.75 81.1094,98.4375 Q81.4023,98.125 81.7344,98.125 Q82.3203,98.125 82.6914,98.4766 Q83.0625,98.8281 83.0625,99.6484 L83.0625,101.6016 Q83.0625,102.4219 82.7109,102.7734 Q82.3594,103.125 81.8125,103.125 Q81.3242,103.125 81.0117,102.9102 Q80.6992,102.6953 80.5625,102.1289 Q80.5039,101.7383 80.2891,101.5234 Q79.8984,101.1133 79.1953,100.8789 Q78.4922,100.625 77.7891,100.625 Q76.9102,100.625 76.168,100.9766 Q75.4453,101.3281 74.8789,102.1094 Q74.3125,102.8906 74.3125,103.9648 L74.3125,105.1172 Q74.3125,106.4063 75.3672,107.2656 Q76.4219,108.125 78.2969,108.125 Q79.4102,108.125 80.1914,107.8711 Q80.6406,107.7344 81.1484,107.2852 Q81.4805,107.0313 81.6563,106.9531 Q81.832,106.875 82.0469,106.875 Q82.457,106.875 82.75,107.207 Q83.0625,107.5195 83.0625,107.9688 Q83.0625,108.3984 82.6328,108.9063 Q82.0078,109.6484 81.0117,110.0586 Q79.7031,110.625 78.1016,110.625 Q76.2266,110.625 74.7227,109.8828 Q73.5117,109.2969 72.6523,108.0273 Q71.8125,106.7578 71.8125,105.2539 L71.8125,103.8867 Q71.8125,102.3242 72.5547,100.957 Q73.3164,99.5898 74.625,98.8672 Q75.9531,98.125 77.4375,98.125 Q78.3359,98.125 79.1172,98.4375 Q79.8984,98.75 80.5625,99.375 Z "/>
        <ellipse cx="104.4375" cy="103.125" fill="#84BE84" rx="3.75" ry="3.75"
                 style="stroke: #038048; stroke-width: 1.25;"/>
        <text fill="#000000" font-family="sans-serif" font-size="15" lengthAdjust="spacingAndGlyphs" textLength="75"
              x="111.9375" y="109.8877">IOManager
        </text>
        <line style="stroke: #A80036; stroke-width: 1.875;" x1="48.75" x2="201.25" y1="123.75" y2="123.75"/>
        <ellipse cx="61.25" cy="137.5" fill="#84BE84" rx="3.75" ry="3.75" style="stroke: #038048; stroke-width: 1.25;"/>
        <text fill="#000000" font-family="sans-serif" font-size="13.75" lengthAdjust="spacingAndGlyphs"
              text-decoration="underline" textLength="122.5" x="72.5" y="143.0237">makeDir(String path)
        </text><!--MD5=[cfe1cb9e1bc9060f65fe183db82cde68]
class FileFireWall-->
        <rect fill="#FEFECE" filter="url(#f7ft8o78dsfv9)" height="67.2949" id="FileFireWall"
              style="stroke: #A80036; stroke-width: 1.875;" width="155" x="277.5" y="83.75"/>
        <ellipse cx="305.25" cy="103.75" fill="#ADD1B2" rx="13.75" ry="13.75"
                 style="stroke: #A80036; stroke-width: 1.25;"/>
        <path d="M307.75,99.375 Q308.0039,98.75 308.2969,98.4375 Q308.5898,98.125 308.9219,98.125 Q309.5078,98.125 309.8789,98.4766 Q310.25,98.8281 310.25,99.6484 L310.25,101.6016 Q310.25,102.4219 309.8984,102.7734 Q309.5469,103.125 309,103.125 Q308.5117,103.125 308.1992,102.9102 Q307.8867,102.6953 307.75,102.1289 Q307.6914,101.7383 307.4766,101.5234 Q307.0859,101.1133 306.3828,100.8789 Q305.6797,100.625 304.9766,100.625 Q304.0977,100.625 303.3555,100.9766 Q302.6328,101.3281 302.0664,102.1094 Q301.5,102.8906 301.5,103.9648 L301.5,105.1172 Q301.5,106.4063 302.5547,107.2656 Q303.6094,108.125 305.4844,108.125 Q306.5977,108.125 307.3789,107.8711 Q307.8281,107.7344 308.3359,107.2852 Q308.668,107.0313 308.8438,106.9531 Q309.0195,106.875 309.2344,106.875 Q309.6445,106.875 309.9375,107.207 Q310.25,107.5195 310.25,107.9688 Q310.25,108.3984 309.8203,108.9063 Q309.1953,109.6484 308.1992,110.0586 Q306.8906,110.625 305.2891,110.625 Q303.4141,110.625 301.9102,109.8828 Q300.6992,109.2969 299.8398,108.0273 Q299,106.7578 299,105.2539 L299,103.8867 Q299,102.3242 299.7422,100.957 Q300.5039,99.5898 301.8125,98.8672 Q303.1406,98.125 304.625,98.125 Q305.5234,98.125 306.3047,98.4375 Q307.0859,98.75 307.75,99.375 Z "/>
        <polygon fill="#4177AF" points="331,98.125,326,105.625,336,105.625"
                 style="stroke: #1963A0; stroke-width: 1.25;"/>
        <text fill="#000000" font-family="sans-serif" font-size="15" lengthAdjust="spacingAndGlyphs" textLength="81.25"
              x="338.5" y="109.8877">FileFireWall
        </text>
        <line style="stroke: #A80036; stroke-width: 1.875;" x1="278.75" x2="431.25" y1="123.75" y2="123.75"/>
        <ellipse cx="291.25" cy="137.5" fill="#84BE84" rx="3.75" ry="3.75"
                 style="stroke: #038048; stroke-width: 1.25;"/>
        <text fill="#000000" font-family="sans-serif" font-size="13.75" lengthAdjust="spacingAndGlyphs"
              text-decoration="underline" textLength="122.5" x="302.5" y="143.0237">makeDir(String path)
        </text><!--MD5=[b24ed8d4ae84bae9290d9aab401637c7]
class Manager-->
        <rect fill="#FEFECE" filter="url(#f7ft8o78dsfv9)" height="67.2949" id="Manager"
              style="stroke: #A80036; stroke-width: 1.875;" width="155" x="507.5" y="83.75"/>
        <ellipse cx="544.8125" cy="103.75" fill="#ADD1B2" rx="13.75" ry="13.75"
                 style="stroke: #A80036; stroke-width: 1.25;"/>
        <path d="M547.3125,99.375 Q547.5664,98.75 547.8594,98.4375 Q548.1523,98.125 548.4844,98.125 Q549.0703,98.125 549.4414,98.4766 Q549.8125,98.8281 549.8125,99.6484 L549.8125,101.6016 Q549.8125,102.4219 549.4609,102.7734 Q549.1094,103.125 548.5625,103.125 Q548.0742,103.125 547.7617,102.9102 Q547.4492,102.6953 547.3125,102.1289 Q547.2539,101.7383 547.0391,101.5234 Q546.6484,101.1133 545.9453,100.8789 Q545.2422,100.625 544.5391,100.625 Q543.6602,100.625 542.918,100.9766 Q542.1953,101.3281 541.6289,102.1094 Q541.0625,102.8906 541.0625,103.9648 L541.0625,105.1172 Q541.0625,106.4063 542.1172,107.2656 Q543.1719,108.125 545.0469,108.125 Q546.1602,108.125 546.9414,107.8711 Q547.3906,107.7344 547.8984,107.2852 Q548.2305,107.0313 548.4063,106.9531 Q548.582,106.875 548.7969,106.875 Q549.207,106.875 549.5,107.207 Q549.8125,107.5195 549.8125,107.9688 Q549.8125,108.3984 549.3828,108.9063 Q548.7578,109.6484 547.7617,110.0586 Q546.4531,110.625 544.8516,110.625 Q542.9766,110.625 541.4727,109.8828 Q540.2617,109.2969 539.4023,108.0273 Q538.5625,106.7578 538.5625,105.2539 L538.5625,103.8867 Q538.5625,102.3242 539.3047,100.957 Q540.0664,99.5898 541.375,98.8672 Q542.7031,98.125 544.1875,98.125 Q545.0859,98.125 545.8672,98.4375 Q546.6484,98.75 547.3125,99.375 Z "/>
        <polygon fill="#4177AF" points="572.6875,98.125,567.6875,105.625,577.6875,105.625"
                 style="stroke: #1963A0; stroke-width: 1.25;"/>
        <text fill="#000000" font-family="sans-serif" font-size="15" lengthAdjust="spacingAndGlyphs" textLength="60"
              x="580.1875" y="109.8877">Manager
        </text>
        <line style="stroke: #A80036; stroke-width: 1.875;" x1="508.75" x2="661.25" y1="123.75" y2="123.75"/>
        <ellipse cx="521.25" cy="137.5" fill="#84BE84" rx="3.75" ry="3.75"
                 style="stroke: #038048; stroke-width: 1.25;"/>
        <text fill="#000000" font-family="sans-serif" font-size="13.75" lengthAdjust="spacingAndGlyphs"
              text-decoration="underline" textLength="122.5" x="532.5" y="143.0237">makeDir(String path)
        </text><!--MD5=[63dd87716ef75a5caca5dce59428e94a]
class File-->
        <rect fill="#FEFECE" filter="url(#f7ft8o78dsfv9)" height="84.5898" id="File"
              style="stroke: #A80036; stroke-width: 1.875;" width="142.5" x="737.5" y="75"/>
        <ellipse cx="784.9375" cy="95" fill="#ADD1B2" rx="13.75" ry="13.75"
                 style="stroke: #A80036; stroke-width: 1.25;"/>
        <path d="M787.4375,90.625 Q787.6914,90 787.9844,89.6875 Q788.2773,89.375 788.6094,89.375 Q789.1953,89.375 789.5664,89.7266 Q789.9375,90.0781 789.9375,90.8984 L789.9375,92.8516 Q789.9375,93.6719 789.5859,94.0234 Q789.2344,94.375 788.6875,94.375 Q788.1992,94.375 787.8867,94.1602 Q787.5742,93.9453 787.4375,93.3789 Q787.3789,92.9883 787.1641,92.7734 Q786.7734,92.3633 786.0703,92.1289 Q785.3672,91.875 784.6641,91.875 Q783.7852,91.875 783.043,92.2266 Q782.3203,92.5781 781.7539,93.3594 Q781.1875,94.1406 781.1875,95.2148 L781.1875,96.3672 Q781.1875,97.6563 782.2422,98.5156 Q783.2969,99.375 785.1719,99.375 Q786.2852,99.375 787.0664,99.1211 Q787.5156,98.9844 788.0234,98.5352 Q788.3555,98.2813 788.5313,98.2031 Q788.707,98.125 788.9219,98.125 Q789.332,98.125 789.625,98.457 Q789.9375,98.7695 789.9375,99.2188 Q789.9375,99.6484 789.5078,100.1563 Q788.8828,100.8984 787.8867,101.3086 Q786.5781,101.875 784.9766,101.875 Q783.1016,101.875 781.5977,101.1328 Q780.3867,100.5469 779.5273,99.2773 Q778.6875,98.0078 778.6875,96.5039 L778.6875,95.1367 Q778.6875,93.5742 779.4297,92.207 Q780.1914,90.8398 781.5,90.1172 Q782.8281,89.375 784.3125,89.375 Q785.2109,89.375 785.9922,89.6875 Q786.7734,90 787.4375,90.625 Z "/>
        <ellipse cx="815.0625" cy="94.375" fill="#84BE84" rx="3.75" ry="3.75"
                 style="stroke: #038048; stroke-width: 1.25;"/>
        <text fill="#000000" font-family="sans-serif" font-size="15" lengthAdjust="spacingAndGlyphs" textLength="25"
              x="822.5625" y="101.1377">File
        </text>
        <line style="stroke: #A80036; stroke-width: 1.875;" x1="738.75" x2="878.75" y1="115" y2="115"/>
        <ellipse cx="751.25" cy="128.75" fill="#84BE84" rx="3.75" ry="3.75"
                 style="stroke: #038048; stroke-width: 1.25;"/>
        <text fill="#000000" font-family="sans-serif" font-size="13.75" lengthAdjust="spacingAndGlyphs" textLength="110"
              x="762.5" y="134.2737">«File(String path)»
        </text>
        <ellipse cx="751.25" cy="146.0449" fill="#84BE84" rx="3.75" ry="3.75"
                 style="stroke: #038048; stroke-width: 1.25;"/>
        <text fill="#000000" font-family="sans-serif" font-size="13.75" lengthAdjust="spacingAndGlyphs" textLength="65"
              x="762.5" y="151.5686">makeDirs()
        </text><!--MD5=[aaee77d11869de683337ec0747dbeb65]
link IOManager to FileFireWall-->
        <path d="M202.6375,117.5 C224.3963,117.5 248.2063,117.5 270.36,117.5 " fill="none"
              id="IOManager-&gt;FileFireWall" style="stroke: #A80036; stroke-width: 1.25; stroke-dasharray: 7.0,7.0;"/>
        <polygon fill="#A80036" points="277.1775,117.5,265.9275,112.5,270.9275,117.5,265.9275,122.5,277.1775,117.5"
                 style="stroke: #A80036; stroke-width: 1.25;"/><!--MD5=[53ec9ac87ce662995c420996c5917a37]
link FileFireWall to Manager-->
        <path d="M432.6375,117.5 C454.3963,117.5 478.2063,117.5 500.36,117.5 " fill="none" id="FileFireWall-&gt;Manager"
              style="stroke: #A80036; stroke-width: 1.25; stroke-dasharray: 7.0,7.0;"/>
        <polygon fill="#A80036" points="507.1775,117.5,495.9275,112.5,500.9275,117.5,495.9275,122.5,507.1775,117.5"
                 style="stroke: #A80036; stroke-width: 1.25;"/><!--MD5=[9094504a78a8a624dc0e3735af7308d8]
link Manager to File-->
        <path d="M663.0113,117.5 C684.8413,117.5 708.6188,117.5 730.465,117.5 " fill="none" id="Manager-&gt;File"
              style="stroke: #A80036; stroke-width: 1.25; stroke-dasharray: 7.0,7.0;"/>
        <polygon fill="#A80036" points="737.1775,117.5,725.9275,112.5,730.9275,117.5,725.9275,122.5,737.1775,117.5"
                 style="stroke: #A80036; stroke-width: 1.25;"/><!--MD5=[16a5a49d5bfb122119e4399c7540cf5e]
@startuml

hide fields
left to right direction
package barbatos_rex1.io{
    +class IOManager{
        {static}+makeDir(String path)
    }
    ~class FileFireWall{
        {static}+makeDir(String path)
    }
    ~class Manager{
        {static}+makeDir(String path)
    }
}
package java.io{
    +class File{
        +«File(String path)»
        +makeDirs()
    }

}

IOManager ..>FileFireWall
FileFireWall ..> Manager
Manager ..> File

@enduml

PlantUML version 1.2020.07(Sun Apr 19 12:42:40 BST 2020)
(GPL source distribution)
Java Runtime: OpenJDK Runtime Environment
JVM: OpenJDK 64-Bit Server VM
Java Version: 11.0.6+8-b765.25
Operating System: Windows 10
Default Encoding: Cp1252
Language: pt
Country: PT
--></g></svg>