<?xml version="1.0" encoding="UTF-8" standalone="no"?>
<svg xmlns="http://www.w3.org/2000/svg" contentScriptType="application/ecmascript" contentStyleType="text/css"
     height="177.5px" preserveAspectRatio="none" style="width:437px;height:177px;" version="1.1" viewBox="0 0 437 177"
     width="437.5px" zoomAndPan="magnify"><defs><filter height="300%" id="fhij09gno8aro" width="300%" x="-1" y="-1"><feGaussianBlur result="blurOut" stdDeviation="2.5"/><feColorMatrix in="blurOut" result="blurOut2" type="matrix" values="0 0 0 0 0 0 0 0 0 0 0 0 0 0 0 0 0 0 .4 0"/><feOffset dx="5.0" dy="5.0" in="blurOut2" result="blurOut3"/><feBlend in="SourceGraphic" in2="blurOut3" mode="normal"/></filter></defs><g><!--MD5=[776170d50eeda089144feb66ec02fd14]
cluster barbatos_rex1.barbatos_rex1.io--><polygon fill="#FFFFFF" filter="url(#fhij09gno8aro)" points="21.25,30,176.25,30,185,59.5117,188.75,59.5117,188.75,162.5,21.25,162.5,21.25,30" style="stroke: #000000; stroke-width: 1.875;"/><line style="stroke: #000000; stroke-width: 1.875;" x1="21.25" x2="185" y1="59.5117" y2="59.5117"/><text fill="#000000" font-family="sans-serif" font-size="17.5" font-weight="bold" lengthAdjust="spacingAndGlyphs" textLength="147.5" x="26.25" y="50.6665">barbatos_rex1.barbatos_rex1.io</text><!--MD5=[0d852700fdad35b7061d461d6907a324]
cluster java.barbatos_rex1.io--><polygon fill="#FFFFFF" filter="url(#fhij09gno8aro)" points="291.25,43.75,356.25,43.75,365,73.2617,410,73.2617,410,148.75,291.25,148.75,291.25,43.75" style="stroke: #000000; stroke-width: 1.875;"/><line style="stroke: #000000; stroke-width: 1.875;" x1="291.25" x2="365" y1="73.2617" y2="73.2617"/><text fill="#000000" font-family="sans-serif" font-size="17.5" font-weight="bold" lengthAdjust="spacingAndGlyphs" textLength="57.5" x="296.25" y="64.4165">java.io</text><!--MD5=[b24ed8d4ae84bae9290d9aab401637c7]
class Manager--><rect fill="#FEFECE" filter="url(#fhij09gno8aro)" height="67.2949" id="Manager" style="stroke: #A80036; stroke-width: 1.875;" width="113.75" x="47.5" y="75"/><ellipse cx="66.25" cy="95" fill="#ADD1B2" rx="13.75" ry="13.75" style="stroke: #A80036; stroke-width: 1.25;"/><path d="M68.75,90.625 Q69.0039,90 69.2969,89.6875 Q69.5898,89.375 69.9219,89.375 Q70.5078,89.375 70.8789,89.7266 Q71.25,90.0781 71.25,90.8984 L71.25,92.8516 Q71.25,93.6719 70.8984,94.0234 Q70.5469,94.375 70,94.375 Q69.5117,94.375 69.1992,94.1602 Q68.8867,93.9453 68.75,93.3789 Q68.6914,92.9883 68.4766,92.7734 Q68.0859,92.3633 67.3828,92.1289 Q66.6797,91.875 65.9766,91.875 Q65.0977,91.875 64.3555,92.2266 Q63.6328,92.5781 63.0664,93.3594 Q62.5,94.1406 62.5,95.2148 L62.5,96.3672 Q62.5,97.6563 63.5547,98.5156 Q64.6094,99.375 66.4844,99.375 Q67.5977,99.375 68.3789,99.1211 Q68.8281,98.9844 69.3359,98.5352 Q69.668,98.2813 69.8438,98.2031 Q70.0195,98.125 70.2344,98.125 Q70.6445,98.125 70.9375,98.457 Q71.25,98.7695 71.25,99.2188 Q71.25,99.6484 70.8203,100.1563 Q70.1953,100.8984 69.1992,101.3086 Q67.8906,101.875 66.2891,101.875 Q64.4141,101.875 62.9102,101.1328 Q61.6992,100.5469 60.8398,99.2773 Q60,98.0078 60,96.5039 L60,95.1367 Q60,93.5742 60.7422,92.207 Q61.5039,90.8398 62.8125,90.1172 Q64.1406,89.375 65.625,89.375 Q66.5234,89.375 67.3047,89.6875 Q68.0859,90 68.75,90.625 Z "/><polygon fill="#4177AF" points="90,89.375,85,96.875,95,96.875" style="stroke: #1963A0; stroke-width: 1.25;"/><text fill="#000000" font-family="sans-serif" font-size="15" lengthAdjust="spacingAndGlyphs" textLength="60" x="97.5" y="101.1377">Manager</text><line style="stroke: #A80036; stroke-width: 1.875;" x1="48.75" x2="160" y1="115" y2="115"/><ellipse cx="61.25" cy="128.75" fill="#84BE84" rx="3.75" ry="3.75" style="stroke: #038048; stroke-width: 1.25;"/><text fill="#000000" font-family="sans-serif" font-size="13.75" lengthAdjust="spacingAndGlyphs" textLength="66.25" x="72.5" y="134.2737">deleteFile()</text><!--MD5=[63dd87716ef75a5caca5dce59428e94a]
class File--><rect fill="#FEFECE" filter="url(#fhij09gno8aro)" height="40" id="File" style="stroke: #A80036; stroke-width: 1.875;" width="78.75" x="311.25" y="88.75"/><ellipse cx="330" cy="108.75" fill="#ADD1B2" rx="13.75" ry="13.75" style="stroke: #A80036; stroke-width: 1.25;"/><path d="M332.5,104.375 Q332.7539,103.75 333.0469,103.4375 Q333.3398,103.125 333.6719,103.125 Q334.2578,103.125 334.6289,103.4766 Q335,103.8281 335,104.6484 L335,106.6016 Q335,107.4219 334.6484,107.7734 Q334.2969,108.125 333.75,108.125 Q333.2617,108.125 332.9492,107.9102 Q332.6367,107.6953 332.5,107.1289 Q332.4414,106.7383 332.2266,106.5234 Q331.8359,106.1133 331.1328,105.8789 Q330.4297,105.625 329.7266,105.625 Q328.8477,105.625 328.1055,105.9766 Q327.3828,106.3281 326.8164,107.1094 Q326.25,107.8906 326.25,108.9648 L326.25,110.1172 Q326.25,111.4063 327.3047,112.2656 Q328.3594,113.125 330.2344,113.125 Q331.3477,113.125 332.1289,112.8711 Q332.5781,112.7344 333.0859,112.2852 Q333.418,112.0313 333.5938,111.9531 Q333.7695,111.875 333.9844,111.875 Q334.3945,111.875 334.6875,112.207 Q335,112.5195 335,112.9688 Q335,113.3984 334.5703,113.9063 Q333.9453,114.6484 332.9492,115.0586 Q331.6406,115.625 330.0391,115.625 Q328.1641,115.625 326.6602,114.8828 Q325.4492,114.2969 324.5898,113.0273 Q323.75,111.7578 323.75,110.2539 L323.75,108.8867 Q323.75,107.3242 324.4922,105.957 Q325.2539,104.5898 326.5625,103.8672 Q327.8906,103.125 329.375,103.125 Q330.2734,103.125 331.0547,103.4375 Q331.8359,103.75 332.5,104.375 Z "/><ellipse cx="353.75" cy="108.125" fill="#84BE84" rx="3.75" ry="3.75" style="stroke: #038048; stroke-width: 1.25;"/><text fill="#000000" font-family="sans-serif" font-size="15" lengthAdjust="spacingAndGlyphs" textLength="25" x="361.25" y="114.8877">File</text><!--MD5=[9094504a78a8a624dc0e3735af7308d8]
link Manager to File--><path d="M161.5463,108.75 C207.3663,108.75 270.985,108.75 311.1613,108.75 " fill="none" id="Manager-File" style="stroke: #A80036; stroke-width: 1.25;"/><text fill="#000000" font-family="sans-serif" font-size="16.25" lengthAdjust="spacingAndGlyphs" textLength="43.75" x="210" y="104.3689">apaga</text><polygon fill="#000000" points="257.5,95.8447,265,99.5947,257.5,103.3447,257.5,95.8447" style="stroke: #000000; stroke-width: 1.25;"/><text fill="#000000" font-family="sans-serif" font-size="16.25" lengthAdjust="spacingAndGlyphs" textLength="8.75" x="171.3552" y="127.264">1</text><text fill="#000000" font-family="sans-serif" font-size="16.25" lengthAdjust="spacingAndGlyphs" textLength="8.75" x="292.2735" y="127.9822">1</text><!--MD5=[1a27f44fe9577355bd3f0eae50a7af65]
@startuml
hide fields
left to right direction
package barbatos_rex1.barbatos_rex1.io{
    ~class Manager{
        +deleteFile()
    }
}
package java.barbatos_rex1.io{
    hide methods
    +class File{
    }
}

Manager"1"- -"1"File: apaga >



@enduml

PlantUML version 1.2020.07(Sun Apr 19 12:42:40 BST 2020)
(GPL source distribution)
Java Runtime: OpenJDK Runtime Environment
JVM: OpenJDK 64-Bit Server VM
Java Version: 11.0.6+8-b765.40
Operating System: Windows 10
Default Encoding: Cp1252
Language: pt
Country: PT
--></g></svg>