<?xml version="1.0" encoding="UTF-8" standalone="no"?>
<svg xmlns="http://www.w3.org/2000/svg" contentScriptType="application/ecmascript" contentStyleType="text/css"
     height="312.5px" preserveAspectRatio="none" style="width:633px;height:312px;" version="1.1" viewBox="0 0 633 312"
     width="633.75px" zoomAndPan="magnify"><defs><filter height="300%" id="f1bfep6vi7rlap" width="300%" x="-1" y="-1"><feGaussianBlur result="blurOut" stdDeviation="2.5"/><feColorMatrix in="blurOut" result="blurOut2" type="matrix" values="0 0 0 0 0 0 0 0 0 0 0 0 0 0 0 0 0 0 .4 0"/><feOffset dx="5.0" dy="5.0" in="blurOut2" result="blurOut3"/><feBlend in="SourceGraphic" in2="blurOut3" mode="normal"/></filter></defs><g><!--MD5=[25130987bb157c9c4bf3597b4cd367a1]
cluster barbatos_rex1.barbatos_rex1.io--><polygon fill="#FFFFFF" filter="url(#f1bfep6vi7rlap)" points="27.5,30,313.75,30,322.5,59.5117,606.25,59.5117,606.25,162.5,27.5,162.5,27.5,30" style="stroke: #000000; stroke-width: 1.875;"/><line style="stroke: #000000; stroke-width: 1.875;" x1="27.5" x2="322.5" y1="59.5117" y2="59.5117"/><text fill="#000000" font-family="sans-serif" font-size="17.5" font-weight="bold" lengthAdjust="spacingAndGlyphs" textLength="278.75" x="32.5" y="50.6665">barbatos_rex1.barbatos_rex1.io</text><!--MD5=[0d852700fdad35b7061d461d6907a324]
cluster java.io--><polygon fill="#FFFFFF" filter="url(#f1bfep6vi7rlap)" points="437.5,192.5,502.5,192.5,511.25,222.0117,556.25,222.0117,556.25,297.5,437.5,297.5,437.5,192.5" style="stroke: #000000; stroke-width: 1.875;"/><line style="stroke: #000000; stroke-width: 1.875;" x1="437.5" x2="511.25" y1="222.0117" y2="222.0117"/><text fill="#000000" font-family="sans-serif" font-size="17.5" font-weight="bold" lengthAdjust="spacingAndGlyphs" textLength="57.5" x="442.5" y="213.1665">java.io</text><!--MD5=[b24ed8d4ae84bae9290d9aab401637c7]
class Manager--><rect fill="#FEFECE" filter="url(#f1bfep6vi7rlap)" height="67.2949" id="Manager" style="stroke: #A80036; stroke-width: 1.875;" width="113.75" x="47.5" y="75"/><ellipse cx="66.25" cy="95" fill="#ADD1B2" rx="13.75" ry="13.75" style="stroke: #A80036; stroke-width: 1.25;"/><path d="M68.75,90.625 Q69.0039,90 69.2969,89.6875 Q69.5898,89.375 69.9219,89.375 Q70.5078,89.375 70.8789,89.7266 Q71.25,90.0781 71.25,90.8984 L71.25,92.8516 Q71.25,93.6719 70.8984,94.0234 Q70.5469,94.375 70,94.375 Q69.5117,94.375 69.1992,94.1602 Q68.8867,93.9453 68.75,93.3789 Q68.6914,92.9883 68.4766,92.7734 Q68.0859,92.3633 67.3828,92.1289 Q66.6797,91.875 65.9766,91.875 Q65.0977,91.875 64.3555,92.2266 Q63.6328,92.5781 63.0664,93.3594 Q62.5,94.1406 62.5,95.2148 L62.5,96.3672 Q62.5,97.6563 63.5547,98.5156 Q64.6094,99.375 66.4844,99.375 Q67.5977,99.375 68.3789,99.1211 Q68.8281,98.9844 69.3359,98.5352 Q69.668,98.2813 69.8438,98.2031 Q70.0195,98.125 70.2344,98.125 Q70.6445,98.125 70.9375,98.457 Q71.25,98.7695 71.25,99.2188 Q71.25,99.6484 70.8203,100.1563 Q70.1953,100.8984 69.1992,101.3086 Q67.8906,101.875 66.2891,101.875 Q64.4141,101.875 62.9102,101.1328 Q61.6992,100.5469 60.8398,99.2773 Q60,98.0078 60,96.5039 L60,95.1367 Q60,93.5742 60.7422,92.207 Q61.5039,90.8398 62.8125,90.1172 Q64.1406,89.375 65.625,89.375 Q66.5234,89.375 67.3047,89.6875 Q68.0859,90 68.75,90.625 Z "/><polygon fill="#4177AF" points="90,89.375,85,96.875,95,96.875" style="stroke: #1963A0; stroke-width: 1.25;"/><text fill="#000000" font-family="sans-serif" font-size="15" lengthAdjust="spacingAndGlyphs" textLength="60" x="97.5" y="101.1377">Manager</text><line style="stroke: #A80036; stroke-width: 1.875;" x1="48.75" x2="160" y1="115" y2="115"/><ellipse cx="61.25" cy="128.75" fill="#84BE84" rx="3.75" ry="3.75" style="stroke: #038048; stroke-width: 1.25;"/><text fill="#000000" font-family="sans-serif" font-size="13.75" lengthAdjust="spacingAndGlyphs" textLength="60" x="72.5" y="134.2737">saveFile()</text><!--MD5=[aa4617302d5207a1740f8e35839836af]
class Exporter--><rect fill="#FEFECE" filter="url(#f1bfep6vi7rlap)" height="67.2949" id="Exporter" style="stroke: #A80036; stroke-width: 1.875;" width="178.75" x="407.5" y="75"/><ellipse cx="457.1875" cy="95" fill="#ADD1B2" rx="13.75" ry="13.75" style="stroke: #A80036; stroke-width: 1.25;"/><path d="M459.6875,90.625 Q459.9414,90 460.2344,89.6875 Q460.5273,89.375 460.8594,89.375 Q461.4453,89.375 461.8164,89.7266 Q462.1875,90.0781 462.1875,90.8984 L462.1875,92.8516 Q462.1875,93.6719 461.8359,94.0234 Q461.4844,94.375 460.9375,94.375 Q460.4492,94.375 460.1367,94.1602 Q459.8242,93.9453 459.6875,93.3789 Q459.6289,92.9883 459.4141,92.7734 Q459.0234,92.3633 458.3203,92.1289 Q457.6172,91.875 456.9141,91.875 Q456.0352,91.875 455.293,92.2266 Q454.5703,92.5781 454.0039,93.3594 Q453.4375,94.1406 453.4375,95.2148 L453.4375,96.3672 Q453.4375,97.6563 454.4922,98.5156 Q455.5469,99.375 457.4219,99.375 Q458.5352,99.375 459.3164,99.1211 Q459.7656,98.9844 460.2734,98.5352 Q460.6055,98.2813 460.7813,98.2031 Q460.957,98.125 461.1719,98.125 Q461.582,98.125 461.875,98.457 Q462.1875,98.7695 462.1875,99.2188 Q462.1875,99.6484 461.7578,100.1563 Q461.1328,100.8984 460.1367,101.3086 Q458.8281,101.875 457.2266,101.875 Q455.3516,101.875 453.8477,101.1328 Q452.6367,100.5469 451.7773,99.2773 Q450.9375,98.0078 450.9375,96.5039 L450.9375,95.1367 Q450.9375,93.5742 451.6797,92.207 Q452.4414,90.8398 453.75,90.1172 Q455.0781,89.375 456.5625,89.375 Q457.4609,89.375 458.2422,89.6875 Q459.0234,90 459.6875,90.625 Z "/><polygon fill="#4177AF" points="487.8125,89.375,482.8125,96.875,492.8125,96.875" style="stroke: #1963A0; stroke-width: 1.25;"/><text fill="#000000" font-family="sans-serif" font-size="15" lengthAdjust="spacingAndGlyphs" textLength="56.25" x="495.3125" y="101.1377">Exporter</text><line style="stroke: #A80036; stroke-width: 1.875;" x1="408.75" x2="585" y1="115" y2="115"/><ellipse cx="421.25" cy="128.75" fill="#84BE84" rx="3.75" ry="3.75" style="stroke: #038048; stroke-width: 1.25;"/><text fill="#000000" font-family="sans-serif" font-size="13.75" lengthAdjust="spacingAndGlyphs" textLength="146.25" x="432.5" y="134.2737">save(ArrayList&lt;String&gt;)</text><!--MD5=[63dd87716ef75a5caca5dce59428e94a]
class File--><rect fill="#FEFECE" filter="url(#f1bfep6vi7rlap)" height="40" id="File" style="stroke: #A80036; stroke-width: 1.875;" width="78.75" x="457.5" y="237.5"/><ellipse cx="476.25" cy="257.5" fill="#ADD1B2" rx="13.75" ry="13.75" style="stroke: #A80036; stroke-width: 1.25;"/><path d="M478.75,253.125 Q479.0039,252.5 479.2969,252.1875 Q479.5898,251.875 479.9219,251.875 Q480.5078,251.875 480.8789,252.2266 Q481.25,252.5781 481.25,253.3984 L481.25,255.3516 Q481.25,256.1719 480.8984,256.5234 Q480.5469,256.875 480,256.875 Q479.5117,256.875 479.1992,256.6602 Q478.8867,256.4453 478.75,255.8789 Q478.6914,255.4883 478.4766,255.2734 Q478.0859,254.8633 477.3828,254.6289 Q476.6797,254.375 475.9766,254.375 Q475.0977,254.375 474.3555,254.7266 Q473.6328,255.0781 473.0664,255.8594 Q472.5,256.6406 472.5,257.7148 L472.5,258.8672 Q472.5,260.1563 473.5547,261.0156 Q474.6094,261.875 476.4844,261.875 Q477.5977,261.875 478.3789,261.6211 Q478.8281,261.4844 479.3359,261.0352 Q479.668,260.7813 479.8438,260.7031 Q480.0195,260.625 480.2344,260.625 Q480.6445,260.625 480.9375,260.957 Q481.25,261.2695 481.25,261.7188 Q481.25,262.1484 480.8203,262.6563 Q480.1953,263.3984 479.1992,263.8086 Q477.8906,264.375 476.2891,264.375 Q474.4141,264.375 472.9102,263.6328 Q471.6992,263.0469 470.8398,261.7773 Q470,260.5078 470,259.0039 L470,257.6367 Q470,256.0742 470.7422,254.707 Q471.5039,253.3398 472.8125,252.6172 Q474.1406,251.875 475.625,251.875 Q476.5234,251.875 477.3047,252.1875 Q478.0859,252.5 478.75,253.125 Z "/><ellipse cx="500" cy="256.875" fill="#84BE84" rx="3.75" ry="3.75" style="stroke: #038048; stroke-width: 1.25;"/><text fill="#000000" font-family="sans-serif" font-size="15" lengthAdjust="spacingAndGlyphs" textLength="25" x="507.5" y="263.6377">File</text><!--MD5=[9094504a78a8a624dc0e3735af7308d8]
link Manager to File--><path d="M161.5025,130.0625 C241.75,160.6688 387.585,216.2925 456.9588,242.7523 " fill="none" id="Manager-File" style="stroke: #A80036; stroke-width: 1.25;"/><text fill="#000000" font-family="sans-serif" font-size="16.25" lengthAdjust="spacingAndGlyphs" textLength="152.5" x="200" y="139.3689">gurda o conteúdo em</text><polygon fill="#000000" points="356.25,130.8447,363.75,134.5947,356.25,138.3447,356.25,130.8447" style="stroke: #000000; stroke-width: 1.25;"/><text fill="#000000" font-family="sans-serif" font-size="16.25" lengthAdjust="spacingAndGlyphs" textLength="8.75" x="171.3045" y="151.9732">1</text><text fill="#000000" font-family="sans-serif" font-size="16.25" lengthAdjust="spacingAndGlyphs" textLength="8.75" x="438.52" y="258.6306">1</text><!--MD5=[7a9e1cedab41fa7dffcc53fc2c302468]
link Manager to Exporter--><path d="M161.5025,108.75 C225.7425,108.75 332.0137,108.75 407.4437,108.75 " fill="none" id="Manager-Exporter" style="stroke: #A80036; stroke-width: 1.25;"/><text fill="#000000" font-family="sans-serif" font-size="16.25" lengthAdjust="spacingAndGlyphs" textLength="53.75" x="249.375" y="104.3689">contêm</text><polygon fill="#000000" points="306.875,95.8447,314.375,99.5947,306.875,103.3447,306.875,95.8447" style="stroke: #000000; stroke-width: 1.25;"/><text fill="#000000" font-family="sans-serif" font-size="16.25" lengthAdjust="spacingAndGlyphs" textLength="8.75" x="171.3045" y="127.264">1</text><text fill="#000000" font-family="sans-serif" font-size="16.25" lengthAdjust="spacingAndGlyphs" textLength="8.75" x="389.02" y="126.6834">1</text><!--MD5=[0ccd183f0b73b47548463aae31c5b123]
@startuml

hide fields
left to right direction
package barbatos_rex1.barbatos_rex1.io{
    ~class Manager{
        +saveFile()
    }
    ~class Exporter{
        +save(ArrayList<String>)
    }
}
package java.io{
    hide methods
    +class File{
    }
}

Manager"1"- -"1"File: gurda o conteúdo em  >
Manager"1"- -"1"Exporter: contêm >

@enduml

PlantUML version 1.2020.09(Sun May 10 11:51:06 BST 2020)
(GPL source distribution)
Java Runtime: OpenJDK Runtime Environment
JVM: OpenJDK 64-Bit Server VM
Java Version: 11.0.6+8-b765.40
Operating System: Windows 10
Default Encoding: Cp1252
Language: pt
Country: PT
--></g></svg>